<svg width="1600" height="900" viewBox="0 0 1600 900" fill="none" xmlns="http://www.w3.org/2000/svg">
  <defs>
    <linearGradient id="sky" x1="800" y1="0" x2="800" y2="540" gradientUnits="userSpaceOnUse">
      <stop stop-color="#FFE7C9"/>
      <stop offset="0.46" stop-color="#FFF5EA"/>
      <stop offset="1" stop-color="#F5FBFF"/>
    </linearGradient>
    <linearGradient id="ground" x1="800" y1="468" x2="800" y2="900" gradientUnits="userSpaceOnUse">
      <stop stop-color="#E7F6E8"/>
      <stop offset="1" stop-color="#CBEACD"/>
    </linearGradient>
    <linearGradient id="track" x1="800" y1="428" x2="800" y2="900" gradientUnits="userSpaceOnUse">
      <stop stop-color="#FFD1A3"/>
      <stop offset="1" stop-color="#F39A57"/>
    </linearGradient>
    <linearGradient id="lane" x1="800" y1="494" x2="800" y2="900" gradientUnits="userSpaceOnUse">
      <stop stop-color="#FFF6DD" stop-opacity="0.94"/>
      <stop offset="1" stop-color="#FFF6DD" stop-opacity="0"/>
    </linearGradient>
  </defs>

  <rect width="1600" height="900" fill="url(#sky)"/>
  <circle cx="172" cy="152" r="86" fill="#FFD9A8" fill-opacity="0.5"/>
  <circle cx="1368" cy="136" r="74" fill="#FFD9A8" fill-opacity="0.34"/>
  <circle cx="1188" cy="238" r="40" fill="#FFF0DA" fill-opacity="0.75"/>
  <circle cx="338" cy="252" r="42" fill="#FFF0DA" fill-opacity="0.72"/>

  <path d="M0 438C156 382 276 394 434 440C618 494 756 490 928 446C1125 396 1308 394 1600 468V900H0V438Z" fill="url(#ground)"/>
  <path d="M0 564C178 514 320 536 488 580C628 618 832 624 1016 576C1204 528 1368 534 1600 598V900H0V564Z" fill="#DDF2DF" fill-opacity="0.82"/>
  <path d="M0 720C164 668 320 672 524 726C678 768 864 776 1048 726C1258 668 1412 678 1600 738V900H0V720Z" fill="#B7E0B7" fill-opacity="0.64"/>

  <g opacity="0.94">
    <ellipse cx="210" cy="518" rx="126" ry="42" fill="#D6F0C7"/>
    <ellipse cx="1348" cy="564" rx="144" ry="48" fill="#D0EEC9"/>
    <ellipse cx="1286" cy="620" rx="78" ry="26" fill="#8CCB7D"/>
    <ellipse cx="280" cy="612" rx="68" ry="22" fill="#8CCB7D"/>
    <ellipse cx="236" cy="786" rx="148" ry="34" fill="#C4E3B6"/>
    <ellipse cx="1248" cy="770" rx="142" ry="32" fill="#C4E3B6"/>
  </g>

  <g opacity="0.96">
    <rect x="116" y="410" width="132" height="108" rx="28" fill="#FFF8EF"/>
    <rect x="132" y="428" width="100" height="18" rx="9" fill="#F6B37F"/>
    <rect x="142" y="460" width="74" height="18" rx="9" fill="#8FD2A7"/>
    <path d="M150 384C172 332 236 330 258 380C228 390 180 392 150 384Z" fill="#73BF78"/>
    <rect x="204" y="382" width="16" height="54" rx="8" fill="#7E5C43"/>

    <rect x="1326" y="398" width="136" height="120" rx="30" fill="#FFF8EF"/>
    <rect x="1342" y="418" width="102" height="18" rx="9" fill="#F6B37F"/>
    <rect x="1350" y="454" width="86" height="24" rx="12" fill="#F2D59B"/>
    <circle cx="1378" cy="466" r="12" fill="#6DBB7A"/>
    <circle cx="1412" cy="466" r="12" fill="#F6A460"/>
    <path d="M1328 376C1354 320 1426 318 1450 372C1416 382 1362 384 1328 376Z" fill="#73BF78"/>
    <rect x="1380" y="374" width="16" height="58" rx="8" fill="#7E5C43"/>
  </g>

  <g opacity="0.8">
    <rect x="510" y="340" width="98" height="86" rx="20" fill="#FFF8EF"/>
    <rect x="522" y="354" width="72" height="12" rx="6" fill="#90D4A7"/>
    <rect x="526" y="376" width="66" height="38" rx="14" fill="#FFD59E"/>
    <circle cx="548" cy="394" r="10" fill="#F5A465"/>
    <circle cx="574" cy="394" r="10" fill="#6EBB7A"/>

    <rect x="998" y="330" width="112" height="96" rx="22" fill="#FFF8EF"/>
    <rect x="1012" y="346" width="84" height="12" rx="6" fill="#F6B37F"/>
    <rect x="1016" y="370" width="76" height="40" rx="14" fill="#D6EDC3"/>
    <circle cx="1040" cy="390" r="10" fill="#6EBB7A"/>
    <circle cx="1068" cy="390" r="10" fill="#F5A465"/>
  </g>

  <path d="M604 468H996L1260 900H340L604 468Z" fill="url(#track)"/>
  <path d="M706 468H894L964 900H636L706 468Z" fill="#FDB777" fill-opacity="0.74"/>
  <path d="M598 468L648 468L571 900H518L598 468Z" fill="#FFF7E5" fill-opacity="0.72"/>
  <path d="M1002 468L952 468L1029 900H1082L1002 468Z" fill="#FFF7E5" fill-opacity="0.72"/>
  <path d="M694 468L724 468L672 900H644L694 468Z" fill="#FFF7E5" fill-opacity="0.58"/>
  <path d="M906 468L876 468L928 900H956L906 468Z" fill="#FFF7E5" fill-opacity="0.58"/>
  <path d="M786 492H814L834 900H766L786 492Z" fill="url(#lane)"/>

  <g opacity="0.22">
    <path d="M0 438C160 374 294 388 460 436" stroke="#FFFFFF" stroke-width="12" stroke-linecap="round"/>
    <path d="M1140 430C1290 392 1418 398 1600 462" stroke="#FFFFFF" stroke-width="12" stroke-linecap="round"/>
  </g>
</svg>
