<svg xmlns="http://www.w3.org/2000/svg" viewBox="0 0 256 256">
  <defs>
    <linearGradient id="chkBg" x1="0" y1="0" x2="1" y2="1">
      <stop offset="0%" stop-color="#EEF6FF"/>
      <stop offset="100%" stop-color="#C3DBFF"/>
    </linearGradient>
    <linearGradient id="meat" x1="0" y1="0" x2="1" y2="1">
      <stop offset="0%" stop-color="#FDE08A"/>
      <stop offset="100%" stop-color="#F1A225"/>
    </linearGradient>
    <filter id="shadow" x="-20%" y="-20%" width="140%" height="140%">
      <feDropShadow dx="0" dy="8" stdDeviation="10" flood-color="#9A4C0E" flood-opacity="0.24"/>
    </filter>
  </defs>
  <circle cx="128" cy="128" r="118" fill="url(#chkBg)"/>
  <g filter="url(#shadow)">
    <path d="M68 142C68 110 94 84 128 84C166 84 190 106 190 138C190 174 164 202 118 202C90 202 68 178 68 142Z" fill="url(#meat)"/>
    <path d="M151 88C166 92 178 100 186 112C176 126 161 134 144 136C135 118 137 102 151 88Z" fill="#F8C347"/>
    <path d="M100 108C118 100 136 100 154 108" stroke="#DF8A17" stroke-width="5" stroke-linecap="round"/>
    <path d="M96 132C116 140 137 140 158 132" stroke="#DF8A17" stroke-width="5" stroke-linecap="round"/>
    <circle cx="72" cy="154" r="18" fill="#F8FAFC"/>
    <circle cx="92" cy="150" r="18" fill="#EEF2F7"/>
    <rect x="70" y="144" width="26" height="12" rx="6" fill="#E2E8F0"/>
  </g>
</svg>
